<svg width="300" height="72" viewBox="0 0 300 72" fill="none" xmlns="http://www.w3.org/2000/svg">
<g filter="url(#filter0_i_8_4)">
<path d="M13.152 25.832C15.04 25.832 16.688 26.216 18.096 26.984C19.536 27.752 20.64 28.76 21.408 30.008V26.216H29.616V52.952C29.616 55.416 29.12 57.64 28.128 59.624C27.168 61.64 25.68 63.24 23.664 64.424C21.68 65.608 19.2 66.2 16.224 66.2C12.256 66.2 9.04 65.256 6.576 63.368C4.112 61.512 2.704 58.984 2.352 55.784H10.464C10.72 56.808 11.328 57.608 12.288 58.184C13.248 58.792 14.432 59.096 15.84 59.096C17.536 59.096 18.88 58.6 19.872 57.608C20.896 56.648 21.408 55.096 21.408 52.952V49.16C20.608 50.408 19.504 51.432 18.096 52.232C16.688 53 15.04 53.384 13.152 53.384C10.944 53.384 8.944 52.824 7.152 51.704C5.36 50.552 3.936 48.936 2.88 46.856C1.856 44.744 1.344 42.312 1.344 39.56C1.344 36.808 1.856 34.392 2.88 32.312C3.936 30.232 5.36 28.632 7.152 27.512C8.944 26.392 10.944 25.832 13.152 25.832ZM21.408 39.608C21.408 37.56 20.832 35.944 19.68 34.76C18.56 33.576 17.184 32.984 15.552 32.984C13.92 32.984 12.528 33.576 11.376 34.76C10.256 35.912 9.696 37.512 9.696 39.56C9.696 41.608 10.256 43.24 11.376 44.456C12.528 45.64 13.92 46.232 15.552 46.232C17.184 46.232 18.56 45.64 19.68 44.456C20.832 43.272 21.408 41.656 21.408 39.608ZM55.7141 24.824V27.704H59.7941V32.696H55.4261C54.9141 35.544 53.6661 37.72 51.6821 39.224C49.6981 40.696 46.8021 41.432 42.9941 41.432V43.352C42.9941 44.6 43.2341 45.576 43.7141 46.28C44.1941 46.952 45.0261 47.288 46.2101 47.288C47.3301 47.288 48.1301 46.952 48.6101 46.28C49.0901 45.608 49.3301 44.6 49.3301 43.256H56.9141C56.7861 46.488 55.8261 49 54.0341 50.792C52.2741 52.584 49.7301 53.48 46.4021 53.48C42.8181 53.48 40.0661 52.552 38.1461 50.696C36.2581 48.808 35.3141 45.992 35.3141 42.248V36.056C38.6421 36.056 41.0901 35.992 42.6581 35.864C44.2581 35.704 45.4421 35.4 46.2101 34.952C47.0101 34.472 47.5381 33.72 47.7941 32.696H34.4021V27.704H48.0341V24.824H34.4021V19.304H59.7941V24.824H55.7141ZM89.4896 39.176C89.4896 39.944 89.4416 40.744 89.3456 41.576H70.7696C70.8976 43.24 71.4256 44.52 72.3536 45.416C73.3136 46.28 74.4816 46.712 75.8576 46.712C77.9056 46.712 79.3296 45.848 80.1296 44.12H88.8656C88.4176 45.88 87.6016 47.464 86.4176 48.872C85.2656 50.28 83.8096 51.384 82.0496 52.184C80.2896 52.984 78.3216 53.384 76.1456 53.384C73.5216 53.384 71.1856 52.824 69.1376 51.704C67.0896 50.584 65.4896 48.984 64.3376 46.904C63.1856 44.824 62.6096 42.392 62.6096 39.608C62.6096 36.824 63.1696 34.392 64.2896 32.312C65.4416 30.232 67.0416 28.632 69.0896 27.512C71.1376 26.392 73.4896 25.832 76.1456 25.832C78.7376 25.832 81.0416 26.376 83.0576 27.464C85.0736 28.552 86.6416 30.104 87.7616 32.12C88.9136 34.136 89.4896 36.488 89.4896 39.176ZM81.0896 37.016C81.0896 35.608 80.6096 34.488 79.6496 33.656C78.6896 32.824 77.4896 32.408 76.0496 32.408C74.6736 32.408 73.5056 32.808 72.5456 33.608C71.6176 34.408 71.0416 35.544 70.8176 37.016H81.0896ZM119.068 39.176C119.068 39.944 119.02 40.744 118.924 41.576H100.348C100.476 43.24 101.004 44.52 101.932 45.416C102.892 46.28 104.06 46.712 105.436 46.712C107.484 46.712 108.908 45.848 109.708 44.12H118.444C117.996 45.88 117.18 47.464 115.996 48.872C114.844 50.28 113.388 51.384 111.628 52.184C109.868 52.984 107.9 53.384 105.724 53.384C103.1 53.384 100.764 52.824 98.7158 51.704C96.6678 50.584 95.0678 48.984 93.9158 46.904C92.7638 44.824 92.1878 42.392 92.1878 39.608C92.1878 36.824 92.7478 34.392 93.8678 32.312C95.0198 30.232 96.6198 28.632 98.6678 27.512C100.716 26.392 103.068 25.832 105.724 25.832C108.316 25.832 110.62 26.376 112.636 27.464C114.652 28.552 116.22 30.104 117.34 32.12C118.492 34.136 119.068 36.488 119.068 39.176ZM110.668 37.016C110.668 35.608 110.188 34.488 109.228 33.656C108.268 32.824 107.068 32.408 105.628 32.408C104.252 32.408 103.084 32.808 102.124 33.608C101.196 34.408 100.62 35.544 100.396 37.016H110.668ZM139.718 25.928C142.854 25.928 145.35 26.952 147.206 29C149.094 31.016 150.038 33.8 150.038 37.352V53H141.878V38.456C141.878 36.664 141.414 35.272 140.486 34.28C139.558 33.288 138.31 32.792 136.742 32.792C135.174 32.792 133.926 33.288 132.998 34.28C132.07 35.272 131.606 36.664 131.606 38.456V53H123.398V26.216H131.606V29.768C132.438 28.584 133.558 27.656 134.966 26.984C136.374 26.28 137.958 25.928 139.718 25.928Z" fill="url(#paint0_linear_8_4)"/>
</g>
<g filter="url(#filter1_i_8_4)">
<path d="M196.376 35.72C198.328 36.136 199.896 37.112 201.08 38.648C202.264 40.152 202.856 41.88 202.856 43.832C202.856 46.648 201.864 48.888 199.88 50.552C197.928 52.184 195.192 53 191.672 53H175.976V19.304H191.144C194.568 19.304 197.24 20.088 199.16 21.656C201.112 23.224 202.088 25.352 202.088 28.04C202.088 30.024 201.56 31.672 200.504 32.984C199.48 34.296 198.104 35.208 196.376 35.72ZM184.184 32.936H189.56C190.904 32.936 191.928 32.648 192.632 32.072C193.368 31.464 193.736 30.584 193.736 29.432C193.736 28.28 193.368 27.4 192.632 26.792C191.928 26.184 190.904 25.88 189.56 25.88H184.184V32.936ZM190.232 46.376C191.608 46.376 192.664 46.072 193.4 45.464C194.168 44.824 194.552 43.912 194.552 42.728C194.552 41.544 194.152 40.616 193.352 39.944C192.584 39.272 191.512 38.936 190.136 38.936H184.184V46.376H190.232ZM205.985 39.56C205.985 36.808 206.497 34.392 207.521 32.312C208.577 30.232 210.001 28.632 211.793 27.512C213.585 26.392 215.585 25.832 217.793 25.832C219.681 25.832 221.329 26.216 222.737 26.984C224.177 27.752 225.281 28.76 226.049 30.008V26.216H234.257V53H226.049V49.208C225.249 50.456 224.129 51.464 222.689 52.232C221.281 53 219.633 53.384 217.745 53.384C215.569 53.384 213.585 52.824 211.793 51.704C210.001 50.552 208.577 48.936 207.521 46.856C206.497 44.744 205.985 42.312 205.985 39.56ZM226.049 39.608C226.049 37.56 225.473 35.944 224.321 34.76C223.201 33.576 221.825 32.984 220.193 32.984C218.561 32.984 217.169 33.576 216.017 34.76C214.897 35.912 214.337 37.512 214.337 39.56C214.337 41.608 214.897 43.24 216.017 44.456C217.169 45.64 218.561 46.232 220.193 46.232C221.825 46.232 223.201 45.64 224.321 44.456C225.473 43.272 226.049 41.656 226.049 39.608ZM256.515 25.928C259.651 25.928 262.147 26.952 264.003 29C265.891 31.016 266.835 33.8 266.835 37.352V53H258.675V38.456C258.675 36.664 258.211 35.272 257.283 34.28C256.355 33.288 255.107 32.792 253.539 32.792C251.971 32.792 250.723 33.288 249.795 34.28C248.867 35.272 248.403 36.664 248.403 38.456V53H240.195V26.216H248.403V29.768C249.235 28.584 250.355 27.656 251.763 26.984C253.171 26.28 254.755 25.928 256.515 25.928ZM288.907 53L280.747 41.768V53H272.539V17.48H280.747V37.112L288.859 26.216H298.987L287.851 39.656L299.083 53H288.907Z" fill="url(#paint1_linear_8_4)"/>
</g>
<defs>
<filter id="filter0_i_8_4" x="1.34399" y="19.304" width="148.694" height="50.896" filterUnits="userSpaceOnUse" color-interpolation-filters="sRGB">
<feFlood flood-opacity="0" result="BackgroundImageFix"/>
<feBlend mode="normal" in="SourceGraphic" in2="BackgroundImageFix" result="shape"/>
<feColorMatrix in="SourceAlpha" type="matrix" values="0 0 0 0 0 0 0 0 0 0 0 0 0 0 0 0 0 0 127 0" result="hardAlpha"/>
<feOffset dy="4"/>
<feGaussianBlur stdDeviation="2"/>
<feComposite in2="hardAlpha" operator="arithmetic" k2="-1" k3="1"/>
<feColorMatrix type="matrix" values="0 0 0 0 0 0 0 0 0 0 0 0 0 0 0 0 0 0 0.25 0"/>
<feBlend mode="normal" in2="shape" result="effect1_innerShadow_8_4"/>
</filter>
<filter id="filter1_i_8_4" x="175.976" y="17.48" width="123.107" height="39.904" filterUnits="userSpaceOnUse" color-interpolation-filters="sRGB">
<feFlood flood-opacity="0" result="BackgroundImageFix"/>
<feBlend mode="normal" in="SourceGraphic" in2="BackgroundImageFix" result="shape"/>
<feColorMatrix in="SourceAlpha" type="matrix" values="0 0 0 0 0 0 0 0 0 0 0 0 0 0 0 0 0 0 127 0" result="hardAlpha"/>
<feOffset dy="4"/>
<feGaussianBlur stdDeviation="2"/>
<feComposite in2="hardAlpha" operator="arithmetic" k2="-1" k3="1"/>
<feColorMatrix type="matrix" values="0 0 0 0 0 0 0 0 0 0 0 0 0 0 0 0 0 0 0.25 0"/>
<feBlend mode="normal" in2="shape" result="effect1_innerShadow_8_4"/>
</filter>
<linearGradient id="paint0_linear_8_4" x1="-1.26672" y1="-0.079968" x2="12.9908" y2="93.4482" gradientUnits="userSpaceOnUse">
<stop stop-color="#D6FF63"/>
<stop offset="1" stop-color="#00970F"/>
</linearGradient>
<linearGradient id="paint1_linear_8_4" x1="162.976" y1="3.64112" x2="171.594" y2="85.898" gradientUnits="userSpaceOnUse">
<stop stop-color="#6AD2FF"/>
<stop offset="1" stop-color="#0272A2"/>
</linearGradient>
</defs>
</svg>
