<svg width="747" height="605" viewBox="0 0 747 605" fill="none" xmlns="http://www.w3.org/2000/svg">
<g clip-path="url(#clip0_2_28)">
<path d="M427.167 531.797C421.976 524.676 414.993 519.495 406.258 517.616C398.641 515.977 390.829 516.344 383.104 516.478L285.423 518.176C277.058 518.321 269.106 525.647 269.579 534.33C270.048 542.939 276.765 550.33 285.733 550.174C314.346 549.677 342.96 549.18 371.573 548.683C378.319 548.565 385.068 548.378 391.815 548.335C393.33 548.326 394.84 548.391 396.353 548.394C396.72 548.394 396.985 548.388 397.172 548.379C397.219 548.392 397.258 548.405 397.319 548.421C398.111 548.63 398.923 548.772 399.719 548.97C399.441 548.981 400.239 549.469 400.639 549.632C400.695 549.74 400.813 549.93 401.011 550.224C401.288 550.731 402.108 552.272 402.141 552.223C403.38 555.27 404.408 558.399 405.218 561.587C407.145 568.615 407.568 570.085 407.9 576.693C408.319 585.042 415.175 593.022 424.054 592.538C432.429 592.082 440.348 585.338 439.898 576.384C439.141 561.297 436.328 544.367 427.167 531.797Z" fill="#E6E6E6"/>
<path d="M291.66 569.214C289.717 558.113 287.81 547.004 285.832 535.91C283.825 524.654 279.849 514.368 271.005 507.054C268.641 505.1 266.193 503.278 263.734 501.461C262.87 500.823 262.007 500.183 261.152 499.531C261.101 499.492 261.069 499.467 261.024 499.433C260.93 499.354 260.817 499.26 260.666 499.134C256.979 496.075 253.415 492.876 250.016 489.473C246.998 486.451 244.109 483.297 241.35 480.012C240.66 479.191 239.979 478.363 239.307 477.527C239.191 477.384 238.569 476.595 238.158 476.08C237.776 475.564 237.078 474.633 236.961 474.471C236.175 473.381 235.402 472.281 234.643 471.171C229.473 463.585 224.983 455.558 221.223 447.184C220.851 446.353 220.486 445.518 220.131 444.677C220.035 444.421 219.911 444.091 219.747 443.652C218.986 441.621 218.227 439.592 217.529 437.537C216.047 433.17 214.766 428.737 213.686 424.237C213.153 422.015 212.67 419.781 212.238 417.536C212.016 416.381 211.807 415.224 211.611 414.064C211.579 413.871 211.387 412.62 211.275 411.913C211.19 411.202 211.032 409.943 211.011 409.749C210.882 408.579 210.767 407.408 210.665 406.236C210.435 403.598 210.271 400.955 210.173 398.307C210.004 393.601 210.043 388.893 210.289 384.183C210.43 381.537 210.641 378.897 210.906 376.262C210.922 376.1 210.935 375.971 210.946 375.855C210.963 375.737 210.982 375.603 211.005 375.437C211.206 373.98 211.418 372.525 211.658 371.074C212.564 365.565 213.76 360.108 215.239 354.725C215.94 352.179 216.703 349.653 217.529 347.147C217.897 346.035 218.277 344.926 218.67 343.822C218.644 343.893 219.823 340.795 219.838 340.691C224.523 329.316 232.266 318.913 232.152 306.044C232.075 297.331 224.623 289.056 215.992 289.542C211.688 289.746 207.631 291.613 204.677 294.749C201.722 297.885 200.1 302.045 200.153 306.354C200.155 306.549 200.156 306.716 200.157 306.878C200.079 307.15 200.014 307.377 199.955 307.578C199.04 309.619 197.913 311.561 196.906 313.552C194.148 319.002 191.803 324.627 189.579 330.332C185.939 339.623 183.176 349.235 181.327 359.041C177.311 380.527 177.196 402.561 180.988 424.088C187.557 461.839 208.364 497.836 237.039 521.89C239.528 523.977 242.075 525.993 244.647 527.968C245.711 528.785 246.784 529.586 247.862 530.382C248.371 530.759 250.483 532.391 249.553 531.6C251.552 533.272 252.395 534.115 252.916 535.357C252.992 535.643 253.097 536.033 253.238 536.564C253.611 537.966 253.965 539.365 254.262 540.787C256.858 553.214 258.701 565.857 260.89 578.369C262.394 586.965 273.048 592.467 280.683 589.812C289.57 586.722 293.272 578.426 291.66 569.214Z" fill="#E6E6E6"/>
<path d="M429.446 600.179C422.727 600.262 416.25 597.676 411.435 592.988C406.62 588.301 403.861 581.895 403.764 575.176L403.587 556.926C384.5 559.25 319.064 559.386 300.279 556.554L300.462 575.445C300.476 582.159 297.836 588.607 293.116 593.383C288.397 598.158 281.981 600.875 275.267 600.94C268.553 601.005 262.085 598.413 257.274 593.729C252.463 589.045 249.699 582.65 249.584 575.937L249.225 538.847C223.686 524.98 202.309 504.549 187.302 479.663C172.294 454.776 164.199 426.336 163.853 397.277C163.371 347.449 185.504 300.749 224.576 269.15C249.98 248.536 280.966 235.988 313.555 233.115C317.978 232.725 322.43 232.507 326.788 232.464C342.139 232.316 411.425 234.018 428.852 238.85L468.098 199.147C468.675 198.555 469.415 198.149 470.224 197.98C471.032 197.81 471.873 197.886 472.639 198.196C473.41 198.495 474.074 199.019 474.541 199.701C475.009 200.383 475.26 201.191 475.26 202.018L475.321 208.27L482.963 200.553C483.539 199.961 484.278 199.554 485.086 199.385C485.895 199.215 486.735 199.29 487.5 199.601C488.272 199.899 488.936 200.424 489.405 201.106C489.873 201.788 490.124 202.596 490.125 203.424L490.8 273.286C510.857 291.019 526.23 313.426 535.556 338.521C544.883 363.617 547.874 390.625 544.267 417.153C540.659 443.681 530.563 468.91 514.873 490.603C499.183 512.296 478.385 529.784 454.32 541.517L454.641 574.685C454.673 581.404 452.039 587.862 447.315 592.642C442.592 597.421 436.166 600.132 429.446 600.179V600.179ZM405.565 554.639L405.763 575.157C405.874 581.34 408.422 587.229 412.855 591.541C417.287 595.853 423.244 598.239 429.427 598.179C435.61 598.119 441.52 595.619 445.868 591.222C450.216 586.825 452.65 580.888 452.641 574.704L452.308 540.273L452.877 539.996C479.879 526.862 502.712 506.501 518.842 481.175C539.395 448.856 547.7 410.247 542.253 372.336C536.805 334.424 517.966 299.716 489.144 274.492L488.809 274.197L488.125 203.443C488.128 203.013 487.999 202.593 487.756 202.238C487.512 201.884 487.166 201.612 486.764 201.461C486.364 201.294 485.923 201.253 485.499 201.341C485.075 201.43 484.687 201.644 484.387 201.957L473.367 213.084L473.26 202.037C473.263 201.607 473.135 201.187 472.891 200.832C472.648 200.478 472.302 200.206 471.899 200.055C471.499 199.888 471.057 199.847 470.632 199.936C470.207 200.025 469.819 200.241 469.519 200.554L429.433 241.107L428.856 240.932C412.652 236.032 342.275 234.315 326.807 234.464C322.501 234.506 318.102 234.722 313.731 235.108C281.538 237.945 250.929 250.341 225.834 270.705C187.239 301.917 165.377 348.044 165.853 397.257C166.197 426.059 174.248 454.244 189.168 478.883C204.087 503.522 225.332 523.716 250.695 537.369L251.214 537.65L251.583 575.917C251.695 582.099 254.244 587.987 258.676 592.298C263.108 596.61 269.064 598.995 275.247 598.935C281.43 598.875 287.339 596.375 291.687 591.979C296.035 587.583 298.47 581.647 298.462 575.464L298.256 554.18L299.443 554.391C316.328 557.399 387.306 557.213 404.437 554.797L405.565 554.639Z" fill="#3F3D56"/>
<path d="M289.267 123.922L178.854 158.271C175.342 159.367 172.409 161.813 170.699 165.071C168.99 168.329 168.643 172.132 169.736 175.645C170.829 179.158 173.272 182.094 176.528 183.807C179.783 185.52 183.586 185.871 187.101 184.782L283.724 154.717L285.748 154.087C286.058 143.622 288.797 133.373 293.749 124.148C293.114 123.87 292.436 123.701 291.745 123.648C290.909 123.575 290.067 123.668 289.267 123.922Z" fill="url(#paint0_linear_2_28)"/>
<path d="M185.254 191.895C183.784 191.906 182.348 191.454 181.149 190.604C179.949 189.754 179.047 188.549 178.57 187.159L171.444 166.331C171.146 165.461 171.023 164.541 171.081 163.623C171.138 162.706 171.377 161.809 171.781 160.983C172.186 160.158 172.749 159.42 173.439 158.812C174.129 158.205 174.931 157.739 175.801 157.441L265.64 126.701C266.509 126.404 267.429 126.28 268.346 126.338C269.264 126.396 270.161 126.634 270.986 127.038C271.812 127.443 272.55 128.006 273.157 128.696C273.765 129.385 274.231 130.188 274.529 131.058L281.655 151.886C282.248 153.599 282.151 155.475 281.384 157.118C280.617 158.76 279.241 160.04 277.547 160.685C277.464 160.717 277.38 160.747 277.296 160.776L187.459 191.515C186.749 191.759 186.005 191.888 185.254 191.895Z" fill="#2F2E41"/>
<path d="M353.035 86.1937C334.845 86.3766 317.44 93.6303 304.504 106.42C291.567 119.209 284.115 136.53 283.724 154.717C283.711 155.427 283.708 156.147 283.715 156.867C283.849 170.711 288.085 184.205 295.888 195.641C303.69 207.078 314.709 215.944 327.55 221.118C340.392 226.292 354.479 227.542 368.031 224.71C381.583 221.878 393.991 215.091 403.685 205.207C413.38 195.323 419.926 182.787 422.496 169.183C425.065 155.578 423.543 141.518 418.121 128.779C412.7 116.04 403.623 105.195 392.037 97.6145C380.452 90.0344 366.879 86.0599 353.035 86.1937V86.1937ZM354.369 224.187C336.341 224.343 318.987 217.34 306.116 204.715C293.245 192.091 285.908 174.876 285.715 156.848C285.706 155.918 285.717 154.998 285.748 154.087C286.161 140.762 290.482 127.853 298.172 116.964C305.863 106.075 316.585 97.6867 329.005 92.8425C341.425 87.9983 354.995 86.9118 368.028 89.7181C381.06 92.5243 392.98 99.0995 402.306 108.626C411.631 118.153 417.951 130.21 420.478 143.3C423.006 156.389 421.63 169.933 416.522 182.246C411.414 194.56 402.8 205.101 391.749 212.558C380.698 220.015 367.7 224.059 354.369 224.187V224.187Z" fill="#3F3D56"/>
<path d="M412.709 155.62C412.86 171.267 406.79 186.334 395.832 197.505C384.875 208.676 369.929 215.036 354.282 215.188C338.635 215.339 323.569 209.268 312.398 198.311C301.227 187.354 294.866 172.408 294.715 156.761C294.696 154.891 294.769 153.05 294.921 151.228C296.197 136.114 303.245 122.071 314.602 112.016C325.959 101.961 340.752 96.6665 355.91 97.2317C371.068 97.7969 385.426 104.178 396.003 115.051C406.58 125.924 412.562 140.452 412.709 155.62V155.62Z" fill="#E6E6E6"/>
<path d="M371.319 159.94C369.87 158.074 367.975 156.603 365.807 155.664C363.135 154.567 360.377 153.691 357.561 153.043L357.406 136.984C361.73 137.593 365.797 139.4 369.147 142.201L372.34 135.219C370.449 133.567 368.284 132.258 365.942 131.351C363.347 130.329 360.626 129.659 357.853 129.359L357.774 121.22L350.225 121.293L350.304 129.512C347.392 129.868 344.589 130.839 342.081 132.362C339.816 133.732 337.916 135.631 336.544 137.896C335.235 140.105 334.571 142.637 334.625 145.204C334.522 147.988 335.355 150.727 336.99 152.982C338.494 154.934 340.471 156.47 342.733 157.447C345.449 158.575 348.254 159.475 351.12 160.136L351.269 175.525C346.17 175.19 341.297 173.3 337.306 170.11L334.113 177.101C336.345 178.91 338.877 180.314 341.594 181.249C344.57 182.282 347.676 182.898 350.822 183.08L350.9 191.149L358.449 191.076L358.37 182.857C362.559 182.358 366.474 180.517 369.53 177.609C370.875 176.293 371.932 174.713 372.635 172.967C373.338 171.222 373.67 169.349 373.612 167.469C373.711 164.773 372.904 162.123 371.319 159.94V159.94ZM351.036 151.406C349.191 150.866 347.472 149.965 345.979 148.755C345.388 148.238 344.917 147.597 344.603 146.878C344.288 146.158 344.137 145.377 344.159 144.592C344.088 142.812 344.725 141.076 345.933 139.765C347.272 138.389 349.008 137.467 350.898 137.127L351.036 151.406ZM362.491 172.576C361.228 173.897 359.575 174.779 357.775 175.092L357.647 161.853C359.375 162.298 360.995 163.089 362.41 164.177C362.946 164.626 363.375 165.191 363.663 165.829C363.951 166.466 364.092 167.161 364.075 167.861C364.161 169.576 363.595 171.261 362.491 172.576V172.576Z" fill="url(#paint1_linear_2_28)"/>
<path d="M189.286 276.549C187.741 276.562 186.234 276.064 185 275.133C183.766 274.201 182.874 272.889 182.461 271.399L178.553 257.166C178.064 255.377 178.304 253.467 179.222 251.855C180.139 250.243 181.658 249.061 183.446 248.567L302.077 215.99C303.867 215.504 305.777 215.747 307.388 216.666C309 217.585 310.182 219.104 310.676 220.892L313.986 232.951L313.388 233.003C282.908 235.669 253.83 247.011 229.593 265.685L229.42 265.771L191.06 276.302C190.482 276.46 189.886 276.544 189.286 276.549V276.549Z" fill="#2F2E41"/>
<path d="M170.27 347.223C156.298 345.296 142.906 340.38 131.006 332.809C125.111 329.061 119.645 324.678 114.705 319.738C109.83 314.861 105.158 309.309 102.703 302.774C100.344 296.729 100.397 290.009 102.853 284.002C105.274 278.033 109.964 273.267 115.894 270.75C121.86 268.304 129.094 267.978 134.948 270.538C137.738 271.728 140.16 273.64 141.967 276.076C142.806 277.199 143.432 278.467 143.813 279.817C144.166 281.039 144.21 282.331 143.94 283.575C143.61 284.817 143.018 285.974 142.205 286.969C141.391 287.964 140.374 288.774 139.221 289.344C136.686 290.675 133.934 291.544 131.094 291.908C128.237 292.326 124.133 292.721 121.811 290.447C121.333 289.998 120.956 289.452 120.703 288.847C120.526 288.383 120.462 287.884 120.517 287.391C120.485 287.608 120.651 286.917 120.641 286.945C120.606 287.047 120.451 287.297 120.671 286.913C120.74 286.786 120.816 286.664 120.9 286.548C120.825 286.647 120.66 286.812 120.955 286.528C121.199 286.256 121.514 286.058 121.864 285.955C122.002 285.913 122.142 285.88 122.281 285.84C122.633 285.741 121.929 285.849 122.29 285.834C122.429 285.828 122.57 285.83 122.709 285.823C123.063 285.803 122.359 285.73 122.699 285.812C122.831 285.843 122.962 285.875 123.092 285.914C123.375 286 122.89 285.709 123.083 285.929C123.31 286.186 122.846 285.679 123.103 285.927C123.231 286.051 123.351 286.181 123.464 286.318C123.91 286.75 124.508 286.988 125.128 286.982C125.749 286.976 126.342 286.726 126.779 286.286C127.201 285.836 127.433 285.24 127.428 284.622C127.422 284.005 127.178 283.414 126.747 282.971C124.408 280.128 119.849 280.88 117.535 283.325C114.583 286.442 115.811 291.325 118.737 293.992C122.05 297.01 126.703 297.178 130.922 296.625C134.488 296.249 137.957 295.232 141.162 293.624C144.347 292.021 146.824 289.293 148.113 285.968C148.692 284.195 148.888 282.319 148.688 280.464C148.488 278.61 147.896 276.819 146.952 275.21C143.155 268.235 135.399 264.715 127.76 264.167C123.828 263.897 119.881 264.41 116.148 265.675C112.414 266.941 108.969 268.934 106.012 271.54C100.313 276.771 96.8426 283.992 96.318 291.71C95.7291 299.712 98.9063 307.447 103.492 313.856C108.29 320.366 113.997 326.155 120.438 331.046C133.033 340.904 147.761 347.676 163.443 350.822C165.308 351.188 167.183 351.5 169.067 351.755C169.667 351.895 170.298 351.8 170.831 351.491C171.363 351.181 171.758 350.68 171.935 350.09C172.09 349.489 172.002 348.852 171.69 348.315C171.379 347.779 170.868 347.386 170.27 347.223L170.27 347.223Z" fill="#3F3D56"/>
<path d="M392.66 243.192C372.216 243.101 351.844 243.817 331.545 245.339C324.606 245.86 318.623 248.372 318.663 252.496C318.696 255.945 324.694 259.927 331.681 259.403C351.97 257.881 372.342 257.165 392.796 257.256C409.471 257.33 409.325 243.266 392.66 243.192Z" fill="#CCCCCC"/>
<path d="M362.577 256.851C360.368 256.873 308.473 257.292 308.404 250.123C308.334 242.956 360.227 242.372 362.437 242.35C364.646 242.329 416.541 241.91 416.61 249.078C416.679 256.246 364.786 256.83 362.577 256.851ZM310.433 250.104C311.874 252.263 330.979 255.157 362.557 254.851C394.136 254.546 413.181 251.284 414.581 249.097C413.14 246.938 394.035 244.045 362.456 244.35C330.877 244.656 311.832 247.917 310.433 250.104L310.433 250.104Z" fill="#3F3D56"/>
<path d="M529.044 443.701C540.529 443.271 554.822 442.734 565.759 434.582C569.015 432.056 571.679 428.849 573.564 425.185C575.45 421.521 576.512 417.49 576.675 413.372C576.838 407.016 574.489 401.491 570.059 397.821C564.26 393.016 555.848 391.957 546.821 394.705L555.538 326.069L548.643 325.192L538.396 405.882L544.12 403.188C550.756 400.066 559.892 398.422 565.625 403.172C567.033 404.415 568.136 405.966 568.848 407.704C569.559 409.442 569.86 411.321 569.727 413.195C569.589 416.26 568.791 419.258 567.389 421.987C565.988 424.716 564.015 427.111 561.605 429.009C553.094 435.353 541.706 436.27 528.784 436.757L529.044 443.701Z" fill="#3F3D56"/>
<path d="M508.93 332.432L471.499 332.794L471.566 339.743L508.997 339.382L508.93 332.432Z" fill="#3F3D56"/>
<path d="M206.533 308.35C204.867 308.361 203.251 307.778 201.976 306.706C200.7 305.634 199.848 304.143 199.572 302.5L197.147 287.941C196.843 286.11 197.279 284.233 198.358 282.723C199.437 281.213 201.071 280.192 202.901 279.885L324.243 259.669C326.074 259.366 327.95 259.802 329.46 260.881C330.97 261.959 331.991 263.593 332.298 265.424L334.723 279.983C335.027 281.814 334.591 283.69 333.512 285.201C332.433 286.711 330.8 287.731 328.969 288.038L207.627 308.254C207.266 308.314 206.9 308.346 206.533 308.35Z" fill="#2F2E41"/>
<path d="M154.588 137.961C182.753 137.689 205.365 114.636 205.093 86.4707C204.821 58.3055 181.767 35.6938 153.602 35.966C125.437 36.2382 102.825 59.2913 103.098 87.4565C103.37 115.622 126.423 138.233 154.588 137.961Z" fill="url(#paint2_linear_2_28)"/>
<path d="M183.097 99.8799C184.721 99.294 186.201 98.3672 187.437 97.1617C188.255 96.3028 188.874 95.2755 189.253 94.152C189.632 93.0284 189.76 91.8356 189.629 90.6572C189.552 89.8171 189.281 89.0063 188.838 88.2882C188.396 87.5701 187.793 86.9641 187.077 86.5175C185.221 85.4004 182.782 85.4668 180.331 86.632L179.854 66.7278L177.855 66.7756L178.415 90.1751L179.928 89.162C181.682 87.9891 184.21 87.1264 186.046 88.2312C186.5 88.524 186.881 88.9176 187.158 89.3814C187.435 89.8453 187.602 90.3668 187.645 90.9055C187.737 91.7834 187.64 92.671 187.358 93.5079C187.077 94.3447 186.619 95.1112 186.015 95.7551C183.868 97.9271 180.666 98.6788 177.01 99.3734L177.384 101.338C179.328 101.024 181.24 100.536 183.097 99.8799V99.8799Z" fill="#2F2E41"/>
<path d="M200.434 65.1315L189.8 66.8473L190.118 68.8215L200.752 67.1057L200.434 65.1315Z" fill="#2F2E41"/>
<path d="M166.868 70.5461L156.234 72.2619L156.552 74.2361L167.186 72.5203L166.868 70.5461Z" fill="#2F2E41"/>
<path d="M189.932 307.619C188.098 307.633 186.304 307.088 184.787 306.056C183.27 305.025 182.103 303.556 181.442 301.846L145.37 208.021C140.961 196.514 141.296 183.728 146.303 172.467C151.309 161.207 160.578 152.393 172.075 147.958L200.562 137.006C201.664 136.579 202.839 136.375 204.02 136.405C205.2 136.434 206.364 136.697 207.442 137.178C208.518 137.646 209.49 138.324 210.301 139.173C211.112 140.021 211.746 141.022 212.166 142.118L278.488 264.467C278.921 265.572 279.132 266.752 279.108 267.938C279.084 269.125 278.826 270.295 278.347 271.381C277.869 272.468 277.181 273.449 276.322 274.268C275.464 275.087 274.452 275.729 273.344 276.155L193.072 307.017C192.07 307.404 191.007 307.608 189.932 307.619Z" fill="#2F2E41"/>
<path d="M191.919 140.328L257.381 226.125L212.825 141.033C212.454 140.039 211.891 139.128 211.168 138.351C210.444 137.574 209.575 136.948 208.61 136.507C207.645 136.066 206.602 135.82 205.541 135.782C204.481 135.745 203.423 135.916 202.429 136.288L191.919 140.328Z" fill="#E6E6E6"/>
<path d="M294.881 204.971L179.419 198.654C177.599 198.554 175.817 198.097 174.173 197.309C172.53 196.52 171.058 195.416 169.842 194.059C168.625 192.701 167.688 191.118 167.083 189.398C166.479 187.679 166.219 185.857 166.319 184.037C166.418 182.217 166.875 180.434 167.664 178.791C168.452 177.148 169.557 175.676 170.914 174.459C172.271 173.243 173.855 172.306 175.574 171.701C177.294 171.097 179.116 170.837 180.936 170.936L296.397 177.253C297.25 177.3 298.085 177.514 298.854 177.883C299.624 178.252 300.313 178.77 300.883 179.405C301.453 180.041 301.891 180.782 302.175 181.588C302.458 182.393 302.579 183.246 302.533 184.098L301.727 198.836C301.632 200.557 300.858 202.171 299.574 203.321C298.29 204.472 296.602 205.065 294.881 204.971Z" fill="url(#paint3_linear_2_28)"/>
<path d="M264.093 210.034C263.941 210.036 263.788 210.032 263.635 210.024L263.635 210.024L168.824 204.837C167.906 204.786 167.007 204.556 166.178 204.158C165.349 203.761 164.607 203.204 163.993 202.519C163.38 201.835 162.907 201.036 162.602 200.169C162.297 199.302 162.166 198.383 162.217 197.465L163.594 172.292C163.644 171.374 163.875 170.475 164.272 169.647C164.67 168.818 165.227 168.076 165.912 167.462C166.596 166.849 167.395 166.376 168.262 166.071C169.13 165.766 170.048 165.635 170.966 165.686L265.777 170.873C267.63 170.976 269.366 171.81 270.605 173.192C271.843 174.574 272.483 176.391 272.384 178.244L271.007 203.417C270.931 204.766 270.467 206.064 269.671 207.156C268.875 208.248 267.781 209.087 266.52 209.572C265.745 209.87 264.923 210.027 264.093 210.034V210.034Z" fill="#2F2E41"/>
<path d="M153.183 53.0566C159.836 47.2217 169.099 52.2944 176.784 51.3165C184.136 50.3808 189.885 43.7219 191.302 36.6931C192.955 28.4927 188.628 20.335 182.318 15.2932C175.407 9.77111 166.297 8.25473 157.689 9.37191C147.823 10.6523 138.835 15.3438 130.783 20.991C123.01 26.2755 115.874 32.4417 109.518 39.3666C103.829 45.7735 99.0293 53.3913 97.556 61.953C96.2171 69.7338 97.38 78.3305 102.035 84.8659C104.503 88.2149 107.791 90.8714 111.584 92.5793C115.54 94.4746 119.754 95.8161 123.589 97.9652C129.389 101.215 135.06 108.014 133.323 115.163C132.95 116.725 132.2 118.171 131.137 119.374C129.86 120.819 127.514 118.949 128.794 117.5C131.043 114.955 130.921 111.591 129.68 108.59C128.207 105.21 125.63 102.43 122.37 100.706C118.355 98.4622 113.934 97.0957 109.821 95.0559C105.886 93.1943 102.458 90.4094 99.8307 86.9383C94.867 80.1789 93.3162 71.3346 94.3479 63.1291C95.4642 54.2495 99.9427 46.1471 105.589 39.3389C111.734 31.9297 119.309 25.6351 127.055 19.9712C135.367 13.8937 144.565 8.73467 154.78 6.80215C163.634 5.12695 173.257 6.0126 181.06 10.7713C188.344 15.2132 193.971 22.9208 194.607 31.588C194.843 35.5321 194.024 39.4679 192.234 42.9904C190.445 46.5129 187.749 49.4949 184.424 51.6294C181.011 53.7167 177.029 54.6798 173.04 54.3829C168.776 54.1513 164.498 52.8876 160.212 53.2914C158.273 53.4279 156.431 54.193 154.965 55.4707C153.512 56.7455 151.741 54.3211 153.183 53.0567L153.183 53.0566Z" fill="#2F2E41"/>
<path d="M745.353 597.594L7.09362 604.729C6.77844 604.731 6.47527 604.608 6.25057 604.387C6.02587 604.166 5.89798 603.865 5.89493 603.55C5.89188 603.235 6.01394 602.931 6.23432 602.706C6.45471 602.48 6.75544 602.352 7.07061 602.348L745.33 595.212C745.646 595.209 745.95 595.332 746.175 595.553C746.401 595.774 746.529 596.076 746.532 596.391C746.535 596.707 746.413 597.011 746.192 597.237C745.971 597.462 745.669 597.59 745.353 597.594V597.594Z" fill="#3F3D56"/>
</g>
<defs>
<linearGradient id="paint0_linear_2_28" x1="167.621" y1="124.75" x2="180.771" y2="203.403" gradientUnits="userSpaceOnUse">
<stop stop-color="#D6FF63"/>
<stop offset="1" stop-color="#00970F"/>
</linearGradient>
<linearGradient id="paint1_linear_2_28" x1="333.247" y1="121.379" x2="373.921" y2="190.989" gradientUnits="userSpaceOnUse">
<stop stop-color="#D6FF63"/>
<stop offset="1" stop-color="#00970F"/>
</linearGradient>
<linearGradient id="paint2_linear_2_28" x1="101.759" y1="36.3538" x2="142.691" y2="158.665" gradientUnits="userSpaceOnUse">
<stop stop-color="#D6FF63"/>
<stop offset="1" stop-color="#00970F"/>
</linearGradient>
<linearGradient id="paint3_linear_2_28" x1="165.036" y1="171.022" x2="169.368" y2="217.414" gradientUnits="userSpaceOnUse">
<stop stop-color="#D6FF63"/>
<stop offset="1" stop-color="#00970F"/>
</linearGradient>
<clipPath id="clip0_2_28">
<rect width="740.675" height="597.175" fill="white" transform="translate(0.13147 7.5932) rotate(-0.553759)"/>
</clipPath>
</defs>
</svg>
