<svg width="120" height="120" viewBox="0 0 120 120" fill="none" xmlns="http://www.w3.org/2000/svg">
<g filter="url(#filter0_i_6_59)">
<rect x="10" y="10" width="100" height="100" rx="50" fill="url(#paint0_linear_6_59)"/>
<path d="M42.152 49.832C44.04 49.832 45.688 50.216 47.096 50.984C48.536 51.752 49.64 52.76 50.408 54.008V50.216H58.616V76.952C58.616 79.416 58.12 81.64 57.128 83.624C56.168 85.64 54.68 87.24 52.664 88.424C50.68 89.608 48.2 90.2 45.224 90.2C41.256 90.2 38.04 89.256 35.576 87.368C33.112 85.512 31.704 82.984 31.352 79.784H39.464C39.72 80.808 40.328 81.608 41.288 82.184C42.248 82.792 43.432 83.096 44.84 83.096C46.536 83.096 47.88 82.6 48.872 81.608C49.896 80.648 50.408 79.096 50.408 76.952V73.16C49.608 74.408 48.504 75.432 47.096 76.232C45.688 77 44.04 77.384 42.152 77.384C39.944 77.384 37.944 76.824 36.152 75.704C34.36 74.552 32.936 72.936 31.88 70.856C30.856 68.744 30.344 66.312 30.344 63.56C30.344 60.808 30.856 58.392 31.88 56.312C32.936 54.232 34.36 52.632 36.152 51.512C37.944 50.392 39.944 49.832 42.152 49.832ZM50.408 63.608C50.408 61.56 49.832 59.944 48.68 58.76C47.56 57.576 46.184 56.984 44.552 56.984C42.92 56.984 41.528 57.576 40.376 58.76C39.256 59.912 38.696 61.512 38.696 63.56C38.696 65.608 39.256 67.24 40.376 68.456C41.528 69.64 42.92 70.232 44.552 70.232C46.184 70.232 47.56 69.64 48.68 68.456C49.832 67.272 50.408 65.656 50.408 63.608ZM84.7141 48.824V51.704H88.7941V56.696H84.4261C83.9141 59.544 82.6661 61.72 80.6821 63.224C78.6981 64.696 75.8021 65.432 71.9941 65.432V67.352C71.9941 68.6 72.2341 69.576 72.7141 70.28C73.1941 70.952 74.0261 71.288 75.2101 71.288C76.3301 71.288 77.1301 70.952 77.6101 70.28C78.0901 69.608 78.3301 68.6 78.3301 67.256H85.9141C85.7861 70.488 84.8261 73 83.0341 74.792C81.2741 76.584 78.7301 77.48 75.4021 77.48C71.8181 77.48 69.0661 76.552 67.1461 74.696C65.2581 72.808 64.3141 69.992 64.3141 66.248V60.056C67.6421 60.056 70.0901 59.992 71.6581 59.864C73.2581 59.704 74.4421 59.4 75.2101 58.952C76.0101 58.472 76.5381 57.72 76.7941 56.696H63.4021V51.704H77.0341V48.824H63.4021V43.304H88.7941V48.824H84.7141Z" fill="white"/>
<rect x="5" y="5" width="110" height="110" rx="55" stroke="url(#paint1_linear_6_59)" stroke-width="10"/>
</g>
<defs>
<filter id="filter0_i_6_59" x="0" y="0" width="120" height="124" filterUnits="userSpaceOnUse" color-interpolation-filters="sRGB">
<feFlood flood-opacity="0" result="BackgroundImageFix"/>
<feBlend mode="normal" in="SourceGraphic" in2="BackgroundImageFix" result="shape"/>
<feColorMatrix in="SourceAlpha" type="matrix" values="0 0 0 0 0 0 0 0 0 0 0 0 0 0 0 0 0 0 127 0" result="hardAlpha"/>
<feOffset dy="4"/>
<feGaussianBlur stdDeviation="2"/>
<feComposite in2="hardAlpha" operator="arithmetic" k2="-1" k3="1"/>
<feColorMatrix type="matrix" values="0 0 0 0 0 0 0 0 0 0 0 0 0 0 0 0 0 0 0.25 0"/>
<feBlend mode="normal" in2="shape" result="effect1_innerShadow_6_59"/>
</filter>
<linearGradient id="paint0_linear_6_59" x1="9.17208" y1="9.88893" x2="48.1403" y2="130.185" gradientUnits="userSpaceOnUse">
<stop stop-color="#D6FF63"/>
<stop offset="1" stop-color="#00970F"/>
</linearGradient>
<linearGradient id="paint1_linear_6_59" x1="2.10729" y1="15.0571" x2="22.7458" y2="126.743" gradientUnits="userSpaceOnUse">
<stop stop-color="#6AD2FF"/>
<stop offset="1" stop-color="#0272A2"/>
</linearGradient>
</defs>
</svg>
