<svg width="120" height="120" viewBox="0 0 120 120" fill="none" xmlns="http://www.w3.org/2000/svg">
<g filter="url(#filter0_i_19_22)">
<path d="M95.8854 93.1L93.4586 93.7007L93.4586 93.7007L95.8854 93.1ZM24.1146 93.1L26.5414 93.7007L26.5414 93.7007L24.1146 93.1ZM21.2025 92.3792L18.7757 91.7785L18.7757 91.7785L21.2025 92.3792ZM98.7975 92.3792L101.224 91.7785L101.224 91.7785L98.7975 92.3792ZM59.8571 52.2143C69.4432 52.2143 77.2143 44.4432 77.2143 34.8571H72.2143C72.2143 41.6818 66.6818 47.2143 59.8571 47.2143V52.2143ZM42.5 34.8571C42.5 44.4432 50.2711 52.2143 59.8571 52.2143V47.2143C53.0325 47.2143 47.5 41.6818 47.5 34.8571H42.5ZM59.8571 17.5C50.2711 17.5 42.5 25.2711 42.5 34.8571H47.5C47.5 28.0325 53.0325 22.5 59.8571 22.5V17.5ZM77.2143 34.8571C77.2143 25.2711 69.4432 17.5 59.8571 17.5V22.5C66.6818 22.5 72.2143 28.0325 72.2143 34.8571H77.2143ZM59.8571 55.2143C71.1001 55.2143 80.2143 46.1001 80.2143 34.8571H75.2143C75.2143 43.3387 68.3387 50.2143 59.8571 50.2143V55.2143ZM39.5 34.8571C39.5 46.1001 48.6142 55.2143 59.8571 55.2143V50.2143C51.3756 50.2143 44.5 43.3387 44.5 34.8571H39.5ZM59.8571 14.5C48.6142 14.5 39.5 23.6142 39.5 34.8571H44.5C44.5 26.3756 51.3756 19.5 59.8571 19.5V14.5ZM80.2143 34.8571C80.2143 23.6142 71.1001 14.5 59.8571 14.5V19.5C68.3387 19.5 75.2143 26.3756 75.2143 34.8571H80.2143ZM98.3121 92.4993C94.0037 75.093 78.4794 62.2143 60 62.2143V67.2143C76.0834 67.2143 89.6787 78.4297 93.4586 93.7007L98.3121 92.4993ZM89.998 101.786C95.4082 101.786 99.515 97.3589 98.3121 92.4993L93.4586 93.7007C93.7214 94.7626 92.858 96.7857 89.998 96.7857V101.786ZM30.002 101.786H89.998V96.7857H30.002V101.786ZM21.6879 92.4993C20.485 97.3589 24.5918 101.786 30.002 101.786V96.7857C27.142 96.7857 26.2786 94.7625 26.5414 93.7007L21.6879 92.4993ZM60 62.2143C41.5206 62.2143 25.9963 75.093 21.6879 92.4993L26.5414 93.7007C30.3213 78.4297 43.9166 67.2143 60 67.2143V62.2143ZM30.002 99.7857C25.6355 99.7857 22.7974 96.3408 23.6293 92.9799L18.7757 91.7785C16.9533 99.1412 23.3212 104.786 30.002 104.786V99.7857ZM89.998 99.7857H30.002V104.786H89.998V99.7857ZM96.3707 92.9799C97.2026 96.3408 94.3645 99.7857 89.998 99.7857V104.786C96.6788 104.786 103.047 99.1412 101.224 91.7785L96.3707 92.9799ZM60 64.2143C77.5212 64.2143 92.2738 76.4278 96.3707 92.9799L101.224 91.7785C96.5991 73.0926 79.9188 59.2143 60 59.2143V64.2143ZM23.6293 92.9799C27.7262 76.4278 42.4788 64.2143 60 64.2143V59.2143C40.0812 59.2143 23.4009 73.0926 18.7757 91.7785L23.6293 92.9799Z" fill="black"/>
</g>
<defs>
<filter id="filter0_i_19_22" x="18.4598" y="14.5" width="83.0804" height="94.2857" filterUnits="userSpaceOnUse" color-interpolation-filters="sRGB">
<feFlood flood-opacity="0" result="BackgroundImageFix"/>
<feBlend mode="normal" in="SourceGraphic" in2="BackgroundImageFix" result="shape"/>
<feColorMatrix in="SourceAlpha" type="matrix" values="0 0 0 0 0 0 0 0 0 0 0 0 0 0 0 0 0 0 127 0" result="hardAlpha"/>
<feOffset dy="4"/>
<feGaussianBlur stdDeviation="2"/>
<feComposite in2="hardAlpha" operator="arithmetic" k2="-1" k3="1"/>
<feColorMatrix type="matrix" values="0 0 0 0 0 0 0 0 0 0 0 0 0 0 0 0 0 0 0.25 0"/>
<feBlend mode="normal" in2="shape" result="effect1_innerShadow_19_22"/>
</filter>
</defs>
</svg>
